<svg viewBox="0 0 20 20" fill="none" xmlns="http://www.w3.org/2000/svg"><path d="M17.234 2.459c.342.096.761.307 1.043.672a2 2 0 0 0-.5-.545c.428.236.728.67.897 1.11-.167-.565-.154-.487-.024-.26.123.242.176.591.181.603a2.3 2.3 0 0 0-.041-.527c.24.425.175 1.507.282.87-.014.114.012.388.015.397.055-.03.029-.66.06-.56.047.119-.005.29-.014.47-.086.853.139.668-.125 1.422l.035-.039c-.282.782-.638 1.447-1.016 2.095-.089.281-.458.954-.672 1.265-.04.06-.268.35-.289.37-.036.037.117-.199.03-.104-.016.021-.374.524-.326.507.043-.054.151-.24.178-.268.19-.167-.938 1.356-.984 1.437l.1-.084-.226.278.065-.13c-.086.106-.192.256-.275.352-.013.014-.002-.042-.032-.004s.002.051-.037.11c-.045.065-.288.342-.366.442-.287.373-.57.758-.88 1.115.29-.397-.042-.027-.12.085-.016.025.034.062-.287.425-.208.235-.093-.04-.39.383.301-.263.052.028-.15.27-.038.045-.322.363-.447.512-.043.051-.085.149-.142.215-.038.045-.08.069-.137.134q-.403.474-.82.925c.096-.225-.146.113-.17.133-.082.06.212-.278.085-.157-.172.196-.314.357-.495.56.141-.14-.117.225-.21.288.042.013-.23.27-.494.513l-.842.881-.771-.893c-.165-.22-.307-.414-.361-.464-.026-.024.099.177-.247-.26-.037-.047-.007-.043-.03-.067-.013-.013-.142-.068-.187-.178-.02-.045.2.156-.22-.326.108.236-.573-.648-.694-.827l.057.113c-.11-.176-.147-.187-.176-.224-.11-.146-.258-.367-.362-.497-.126-.157-.157-.133-.293-.332l.085.151-.294-.39c.268.263-.045-.062-.067-.09-.031-.036.028.005-.024-.058-.005-.006-.014.016-.092-.083-.162-.203-.116-.185-.182-.271-.006-.008 0 .03-.116-.117-.374-.475.013-.005.028.011.02.02-.043-.183.241.233-.095-.139-.08-.174-.092-.19l-.203-.26c-.097-.11-.037.006-.057-.014s-.207-.318-.31-.346c-.053-.174.104.047.281.267.035.025-.14-.227-.152-.244-.242-.325-.148-.116-.227-.167-.04-.028-.112-.183-.057-.032-.223-.295-.069-.13-.08-.152-.017-.032-.101-.126-.11-.142-.012-.02.048.037-.003-.042-.008-.012-.118-.118-.014.046-.15-.212-.155-.182-.17-.28-.173-.095-.036-.136-.072-.196-.098-.158-.12-.078-.13-.082-.056-.043-.336-.481-.417-.582.068.014.235.338.29.398.18.201-.198-.324-.037-.2l-.181-.172c-.054-.146.08.02-.16-.306-.065-.035.166.233.104.19-.036-.025-.17-.215-.18-.216-.01.002.117.168.088.151-.07-.04-.477-.699-.133-.221-.093-.136-.088-.243-.184-.35-.06-.07.153.413-.263-.247.016-.029.178.256.185.262.01.007.032-.08.03-.091-.013-.035-.479-.684-.538-.846.004.08-.325-.512-.37-.569-.013-.015.004.06-.009.043-.078-.102-.223-.432-.302-.576-.089-.16-.094-.13-.099-.139-.038-.07.005-.022-.019-.064a37 37 0 0 1-.29-.55c-.005-.006.012.08-.042-.018-.009-.018.02-.013-.141-.32-.188-.366.094.273-.004.13-.08-.257-.11-.231-.137-.297-.009-.022-.055-.204-.138-.397.062.135.128.272.19.396-.05-.123-.172-.388-.21-.5-.017-.054.024-.02-.022-.135-.008-.024-.11-.098.04.196-.012.033-.058-.119-.09-.183-.005-.011-.055-.032-.067-.134.004-.02.178.17-.1-.413-.008-.019 0 .054-.01.035-.006-.014-.046-.172-.054-.194-.007-.019 0 .07-.009.047-.048-.116-.028-.287.032-.041a5 5 0 0 1-.04-.25c-.025.096-.043-.121-.063-.238-.106-.798-.07-.261-.101-.397-.03-.23.038-.054.036-.428 0-.017-.017.081-.023.085.004-.01-.024-.052.03-.287l.023-.085a2 2 0 0 0-.034.21c.036-.054.117-.528.146-.56.088-.2.124-.233.159-.287.039-.048.083-.152.33-.375.045-.04.156-.108.265-.172.216-.118.074-.069-.141.065-.211.126-.426.383-.442.396-.01.006.2-.284.495-.454.291-.175.556-.225.581-.231.16-.035-.488.167-.354.151.016-.004.162-.073.38-.125a3.4 3.4 0 0 1 1.282-.027c.28.056.382.147.4.086.061.079.138.057.171.067.4.134.398.14.721.279.07.031.12.077.146.086.014.006-.003-.026.069.004.106.037.635.383.663.422.032.034-.224-.14-.187-.094.19.121.366.24.542.376.073.056.029.037.06.061.018.012.267.198.259.187-.011-.04-.808-.612-.587-.477.044.025.171.152.168.107.71.53 1.314 1.137 1.866 1.774-.337-.347-.702-.757-1.089-1.103-.052-.047-.232-.208-.22-.175.334.29.727.663 1.001.975.01.01-.035-.014-.003.024.062.07.28.278.308.32-.007-.003-.122-.105-.098-.06.066.122.14.1.214.188.062.069.411.546.518.652.115.11-.262-.351-.222-.328.27.301.501.638.724.944.003.005-.019-.05.032.018.09.12.093.158.133.222l.169.257c.103-.207.203-.396.287-.527-.103.18-.193.36-.278.542l.026.04a17 17 0 0 1 1.178-2.047c.116-.164.076-.06.26-.334l-.17.196c.097-.14.562-.737.64-.83.01-.013.004-.046.126-.192.109-.129.141-.137.204-.202.053-.055.108-.12.124-.136.013-.012.025-.01.055-.038.095-.09 0-.035.116-.104l-.063.07c.113-.11.279-.25.119-.081-.027.03-.01-.002-.031.02-.79.857-.157.177.127-.12.082-.067.52-.467.542-.473.023-.014-.047.059.062-.017.016-.024.663-.491.44-.31-.049.034-.358.258-.427.318.183-.115.573-.438.628-.465.198-.12-.36.261.082-.015.346-.2.011-.028.14-.113.072-.052.49-.233.47-.25.143-.066.066-.016.083-.022.017-.009.304-.13.403-.153.012-.002-.02.023-.007.02.024-.008.306-.092.322-.095.007-.003-.065.003-.037-.008.032-.014.315-.072.332-.076.02-.012-.33.066-.275.04.162-.037.427-.09.535-.112-.026.005-.187.028-.242.037.019-.025.293-.061.275-.048.039-.011.005-.01.042-.02.013-.004.116-.013.137-.017-.007-.001-.106-.001-.085-.007a3 3 0 0 1 .394-.018c.076.005-.19.012-.214.024.008 0 .223.014.228.017.012.014-.238.006-.21.021q.094 0 .187.006c-.24.008-.677.052-.783.094.344-.07.713-.074.713-.036 0 .015-.149.03-.143.034.024.011.227-.008.238-.006q.01 0 .01.003c-.006.006-.297.019-.31.026-.024.008.107.03.107.036-.005 0-.209.02-.14.027.07.004.245 0 .257 0 .034.004-.279.024-.287.032.007.001.163.003.168.007-.005.003-.123.018-.17.033-.035.011.07.008.053.01-.012 0-.305.034-.318.04-.02.005.048.005.039.009-.014.005-.107.016-.094.018.015-.003.375-.013.371 0-.008.013-.381.02-.026.043l.089-.01c.053.007-.217.04.115.019-.615.064-.075.026-.165.058-.034.011-.268.044-.27.047.025.01.099-.01.125-.008.01.002-.192.045-.144.047.025 0 .246-.03.255-.028.086 0-.018.018 0 .023.013.002.146-.007.15-.006-.002.001-.172.029-.209.04-.028.007.078.003.059.007-.119.02-.372.033-.125.037.014 0 .103-.011.109-.011.058.005-.111.024-.14.038-.048.022.19-.018-.007.02.15-.01.232-.02.408-.03-.485.039-.643.116-.116.055-.168.012-.147.036-.197.042-.031.002-.275.02-.157.053.017.002.157-.026.115-.007-.348.052-.006.008-.006.012-.004.009-.838.194-.968.282-.157.071-.282.166-.315.183-.108.059-.025-.002-.051.007a5 5 0 0 0-.333.22c-.055.031-.018-.009-.016-.014-.08.034-.459.33-.562.418.011.003.22-.164.099-.046-.136.137-.174.115-.18.116-.684.596-1.26 1.334-1.758 2.12.026 0 .346-.515.36-.522.053-.056-.508.797-.571.906q.078-.117.162-.236c-.062.156-.277.446-.38.662-.032.069.048-.052.049-.052-.032.083-.105.199-.07.101-.085.19-.088.158-.163.3-.002.005.038-.046-.014.066-.026.055-.165.337-.174.385-.004.018.111-.107.082-.143.172-.3.032-.109.094-.228.01-.018.005.036.154-.27.004.077-.199.407-.224.471-.052.128.22-.367.243-.476.007.057.022-.032.084-.143.069-.122.048-.065.084-.129.1-.176.04-.115.142-.25-.138.108.139-.255.223-.355a14 14 0 0 0-.32.557l.026-.026-.083.145.005-.028c-.124.269-.173.317-.186.34-.143.267-.3.59-.426.872-.018.041.011.023-.137.324-.047.1-.024 0-.068.111-.015.16-.048.144-.064.184-.05.124-.064.196-.07.211-.022.061-.056.15-.077.214l-.433 1.275L9.19 9.78a9 9 0 0 0-.171-.266c-.001 0 .034.08-.024-.016-.021-.035-.169-.372-.373-.62l.133.21c-.05-.087-.466-.626-.382-.483.055.09.234.267.218.313-.115-.2-.904-1.171-.968-1.244-.006-.01.057.043.046.028-.01-.013-.196-.225-.219-.258-.011-.018.078.072.074.06s-.231-.274-.261-.281c.065.06.221.246.126.16-.013-.011-.061-.082-.077-.096-.14-.125.236.286.29.354-.243-.255-.59-.67-.887-.939-.105-.123.186.154.064.017-.244-.271-.1-.075-.095-.065-.077-.056-.259-.33-.3-.286-.096-.098-.058-.074-.208-.194l.049.058c-.181-.115-.474-.454-.449-.442.084.04.25.208.265.22.023.02.129.023.337.281.13.058-.373-.36-.13-.187-.15-.138-.787-.652-.898-.688-.013-.004.018.062-.137-.06-.074-.057.118.061.087.03-.048-.046-.458-.314-.911-.48a2.9 2.9 0 0 0-1.073-.194c-.018 0-.012-.013-.03-.013-.073 0-.26.04-.332.057.169-.016-.152.066-.157.092-.05.031-.056.01-.075.024-.074.022-.058.359-.068.567.048-.02.042.363.112.556.043.136.16.335.109.134.09.254.209.495.326.73.018.036-.022-.006.01.055.003.006.022.007.05.06.247.452.104.248.14.339q.03.074.05.11c-.15-.266-.305-.567-.345-.652-.005.084.305.597.38.745.002.005-.026-.003-.023.003.028.056.244.42.223.332-.007-.025-.106-.195-.214-.388.032.05.031.001.037.009.07.105.216.405.27.5.012.022.023.014.026.017.05.09-.008.075.085.145.051.188-.188-.298-.197-.247-.015.04.634 1.056.678 1.035q-.002.008.018.056c.029.07.22.35.26.394.008.007.04-.019.047-.009.02.03.227.387.337.5l-.13-.216c.29.413.258.342.17.197l-.012-.022c-.068-.112-.156-.254-.155-.258.008-.006.506.683.38.57-.022-.019-.235-.349-.144-.173.015.031.172.236.177.248.034.084-.313-.355-.297-.283.101.095.192.247.289.368.043.055.071.057.077.063.081.103.02.057.046.092.015.02.205.2.123.198.546.655.177.162-.133-.257.116.119.299.386.39.499.033.04.032.003.088.07.115.14.621.84.757 1.021-.092-.104-.087-.058-.02.026.068.083.04-.006.054.007.018.017.314.416.371.48-.244-.287-.212-.207-.013.047l-.105-.097c.126.143.345.475.421.55.012.012-.01-.047-.003-.04.066.066.258.336.273.342.012.006-.061-.113-.022-.078.008.007.07.129.158.224.033.036.03 0 .04.01.07.07.006.046.131.189.092.104.185.162.295.311-.361-.499-.045-.092.134.1.029.031.036-.018.183.183-.396-.363.069.14.157.243.005.006-.012.024.033.078.004.004.012-.013.055.035.399.446.134.168.195.264.025.04.243.256.291.31.012.013-.006.018.038.068.082.092.176.172.229.23.005.006-.013.027.09.13.032.033.075.067.037.011-.109-.162-.406-.434-.537-.625-.119-.173.31.317.343.354.007.008-.09-.082-.003.023.057.067.162.146.258.24.085-.056.18-.119.22-.17.065-.082.01-.087.015-.096.007-.013.096-.111.122-.151.03-.047-.002-.038.05-.11.112-.16.146-.129.162-.142.184-.166.065-.128.096-.174.037-.051.507-.576.586-.701q-.044.078-.093.157c.092-.065.126-.183.168-.15-.052-.072.134-.21.176-.265.017-.022.005-.03.026-.057.083-.106.27-.32.31-.383.163-.257-.359.311-.405.362.082-.1.496-.649.265-.427-.035.035-.06.128-.076.15-.108.151-.044.016-.055.025-.02.017-.07.13-.094.154-.008.008.013-.066-.103.075.039-.095.363-.461.402-.522.01-.019-.127.052.187-.244h-.022c.143-.186.292-.382.435-.573-.004.03-.063.153.034.017.057-.078-.012-.042-.007-.05.048-.07.989-1.302 1.155-1.546.059-.084.203-.33.215-.347.073-.107.347-.47.395-.546.03-.048-.022-.02.008-.06.028-.038.022.017.03.006.077-.09.535-.836.665-.996-.072.102-.38.661-.357.66a.8.8 0 0 0 .115-.148c.048-.03.09-.222.155-.296.008-.008.017.05.119-.092.035-.05.094-.196.208-.31.117-.204.77-1.198.763-1.292-.004.001-.095.135-.055.028.052-.144.056.014.147-.136.018-.027.228-.44.232-.463.026-.149-.178.206-.183.201a3 3 0 0 1 .154-.34c.01-.01-.063.271.069-.043l-.073.093c.06-.149.102-.142.121-.175.06-.104.053-.237.204-.38.039-.036.026.049.032.045.05-.044.012-.145.097-.202.006-.003-.039.195.095-.128l-.042.06c.008-.046.13-.39.145-.428.05-.121.052 0 .088-.126-.076.066.032-.324.067-.285-.042-.063.066-.363.07-.468.01-.082-.02-.197-.021-.209.002-.016.042-.017.047-.048.002-.015-.047-.073-.011-.08.008-.001.064-.039.082-.046.031-.014.002.06.04.053.041-.019-.01-.077-.01-.077 0-.035.043-.06.056-.067.025-.025-.018-.057-.023-.062-.001-.017.052-.016.066-.03.022-.02-.018-.104 0-.103.037.004.065.076.067.08.056.02.055-.075.046-.12 0-.013.037-.004.033-.01-.067-.104-.07.056-.127.01-.054-.038.035-.033.042-.035.001-.004-.08-.05-.092-.07.008-.014.252.042.267.02a.8.8 0 0 0-.234-.116c.015-.047.125.046.133.048.027.005-.022-.052-.014-.064.006-.009.105.01.038-.045-.023-.018-.103-.026-.201-.095.407.126.157-.011.145-.037-.006-.022.221.038-.039-.07.023-.09.018-.028.1-.008.093.028-.076-.113.205.089.021-.05-.249-.191-.27-.194-.01-.008.061-.002.04-.018-.238-.175-.068-.073-.132-.15-.002-.01-.297-.098-.068-.053.395.089.506.275.638.208-.224-.26-.648-.275-.742-.288-.154-.027.009-.024-.007-.035-.008-.004-.137-.024-.135-.025-.038-.055.105-.043.288.015.172.051.372.162.466.213a1.4 1.4 0 0 0-.137-.123q.115.053.214.117c-.317-.218-.001-.028.121-.029.028-.001-.205-.134.073.01-.179-.15-.108-.121-.305-.202.023-.038.46.187.59.364-.22-.29-.324-.296-.377-.318-.062-.015-.104-.046-.363-.183-.107.002.14.091.12.093-.093-.017-.23-.114-.462-.08-.036.008.097.078-.114.034a1 1 0 0 1-.14-.061c.02-.027.139.002.152-.007.002-.012-.136-.027-.136-.03.002-.035.113.003.1-.01-.022-.028-.55-.183.146-.052-.586-.052-.095.005.15.062.06.012.08-.004.163.017.098.023.242.102.293.128.058.034-.243-.218.22.097-.094-.105-.28-.212-.462-.275-.168-.06-.35-.098-.486-.137-.229-.07-.145-.08.01-.07.187.013.432.082.477.097.025.007-.046-.049-.03-.045.014-.018.556.264.6.299.062.014-.179-.126-.185-.153.003-.054.622.44.304.145-.215-.215-.718-.337-.756-.415m-6.932 14.009h.027c-.003-.008.005-.008.012-.009l-.043-.001zm-1.153-.008h.034l.008-.01h-.03zm1.13-.049.012.034.063.001c-.002.004-.02-.011-.027-.02l-.01-.015zm-1.09.01-.017.017h.03l.03-.036h-.026l-.018.02m-.064.017h.019l.017-.037h-.013c-.012.017-.03.039-.023.037m2.959-.354c-.01-.012-.185.17-.182.204.03-.035.184-.193.182-.204M9.118 15.08c-.028-.003.124.163.126.168.004.01-.015.07-.004.086.017.023.203.242.34.404l.017-.018c.013-.002.007.01-.008.03l.027.034a.1.1 0 0 0 .016-.035c-.023-.032-.038-.042-.05-.046-.023.02-.024.013-.015-.006q-.005 0-.008-.002c-.032-.037-.084-.13-.149-.199l.178.168.007-.008c-.127-.16-.456-.569-.477-.576m.488.602.026.023-.016-.02v-.001l-.006-.007zm.482-.681c.008-.007.149-.215.122-.108l-.025.039a2 2 0 0 1-.14.156c-.005.005-.011-.043-.066.025-.041.053.052 0-.039.098-.09.096.005-.055-.003-.048-.014.012-.13.175-.142.155-.009-.013.137-.169.172-.216.043-.058-.033-.008.05-.097.053-.057.059.006.07-.004m.47-.248c-.033.027-.203.255-.132.192.061-.053.182-.234.132-.192m.014-.099c-.017.018-.28.312-.207.267.028-.018.48-.552.207-.267m-1.549.153c-.052-.097.182.181.084.1zm-.26-.164c.023.059.13.18.114.13a.6.6 0 0 0-.114-.13m1.936.107c0 .02.042-.04.08-.074.041-.039.149-.152.201-.254zm.064-.537c-.02.066-.155.2-.22.272.022-.059.156-.207.22-.272m-2.203.152c-.02-.042-.123-.124-.087-.055a.17.17 0 0 0 .087.055m2.54-.119c.143-.09.042-.074-.06.024-.01.049.036-.01.06-.024m-2.856-.163c.01.013.167.212.176.201-.034-.056-.256-.325-.176-.201m2.754.044c-.023.018-.113.14-.102.147.025.004.138-.175.102-.147m-.126-.149c-.03.051-.005.074-.05.124-.149.162-.053.02.05-.123m.339.187c.134-.1.1-.177.022-.082-.03.037-.041.096-.022.082m-3.081-.3c.03.068.179.206.151.161-.022-.034-.18-.228-.151-.16m2.951-.156c.062-.037-.073.114-.074.117 0 .008.14-.032-.091.163-.034.029.046-.104.036-.097l-.057.055c.082-.112.173-.23.186-.238m.309.111c.017-.05-.147.136-.154.149-.044.077.12-.051.154-.149m-3.359-.05c-.112-.093.081.13.147.206.016-.005-.139-.198-.147-.206m3.12-.026c.016.005-.13.209-.17.196.035-.038.158-.197.17-.196m.57-.245c-.024.014-.173.24-.182.248-.014.012.015-.073-.07.041.014 0-.016.084-.004.075.039-.031.323-.4.257-.364m-.222.183c.005-.01-.078.024-.097.075-.014.038.073-.035.097-.075m-3.983-.644c.074.05.379.45.316.41-.05-.033-.276-.331-.316-.41m4.31-.228c-.023-.007-.194.243-.248.295-.004.067.132-.16.17-.192l-.01.072c.001.02.022.002.103-.153-.12.136-.011-.016-.016-.022m.043-.047c.092-.122-.022-.072-.061.017-.002.006.055-.01.061-.017m-4.733-.244c.034.047.145.172.127.173-.06-.068-.125-.136-.127-.173m-.126.061c-.033-.05-.028-.077-.05-.096-.006-.005-.023.004-.046-.017zm8.584-.691c-.022.078-.259.324-.232.27.008-.015.236-.302.232-.27m-9.077-.034c-.062-.095-.201-.253-.154-.165.01.019.14.165.154.165m6.145-.168c-.064.055-.137.188-.094.15.011-.01.108-.145.094-.15m-8.539-.292c.085.118.234.2.121.058-.012-.015-.121-.077-.12-.058m2.117.119c-.033-.054-.165-.217-.119-.136.02.035.1.132.12.136m7.36-1.13c-.036.068-.305.412-.297.426.01.013.296-.386.298-.426m-10.274-.152c.007.016-.033.034-.027.051.002.009.165.231.181.263l.01.022c-.011-.042.123.165.107.167a2 2 0 0 1-.1-.15l-.003-.006c.004.037-.308-.449-.26-.33-.102-.135.042 0-.036-.1-.026-.033-.092-.04-.188-.245-.028-.06.02-.004.018-.015 0-.004-.088-.197.006-.051.142.217-.019.042.054.16.01.016.17.218.168.204 0-.002-.047-.066-.052-.078-.018-.046.007-.035.004-.041-.01-.02-.252-.357-.265-.424-.003-.017.368.546.383.573m.128.107c.043.12.155.287.16.224-.127-.188-.012.044-.16-.224m1.86-.166c-.058-.117.198.247.1.14zM3.092 9.68c-.08-.098.055.162.094.197.017.016-.059-.154-.094-.197m6.146.02c-.045-.08-.054-.059-.05-.052.03.06.101.144.05.052m-7.03-1.274c.007.01.084.188.129.266.135.236.124.165.132.178.009.015.08.174.129.257.123.208.185.286.338.574-.11-.151-.088-.046-.185-.228l.038.037c-.158-.242-.317-.563-.477-.857-.043-.077-.018.026-.067-.08-.04-.087-.066-.19-.037-.147m2.491.857c.022.01.188.227.179.25-.012.03-.153-.206-.179-.25m4.232.122c-.352-.494-.353-.586-.056-.12.004.006.082.15.056.12m5.437-.064q-.012.008-.024 0 .03-.017.024 0M7.86 7.872c.03.035.014-.01.047.03.11.135.195.26.293.387.01.011-.05-.083.025.014.01.013.071.119.16.233.236.236.337.457.585.793a7 7 0 0 0-.18-.294 16 16 0 0 0-.795-1.075c-.059-.073-.039-.032-.064-.063-.02-.024.018-.008-.054-.085-.034-.036.046.095.021.072-.015-.016-.08-.107-.109-.131a.7.7 0 0 0 .071.12m-3.602.854c-.17-.31.767 1.124.181.322l.101.101c-.063-.107-.15-.234-.166-.231l-.005-.02c-.004-.01-.084-.12-.111-.172m4.894.514-.004.013.01-.002.006-.012zm1.103-.103.007.011h.011l-.007-.013zm-1.968-.71c-.013.002.114.159.136.17a3 3 0 0 0-.136-.17m2.486-.043c.008-.038-.075.135-.093.188.002.02.093-.185.093-.188m-.032.148a1 1 0 0 0 .09-.193c-.021.044-.089.178-.09.193M8.15 8.26c.093.152-.01-.014-.024.003.072.093.256.339.146.16-.022-.036-.088-.118-.122-.163m6.845-.017c.085-.104.09.021.007.1-.01.009-.12.041-.007-.1m-12.816-.11c.005.014.09.172.097.162-.026-.062-.133-.256-.097-.162m9.265-1.126a1.6 1.6 0 0 0-.144.292l-.044.06c-.05.041-.815 1.58-.28.555.016-.03-.017.007.051-.121.005-.009.016-.009.03-.035.034-.064.212-.381.243-.448q.003 0 .011-.011c.056-.071.163-.335.133-.292m-1.82 1.159.024.038.019-.037-.033-.024zm-1.615-.055c.032.039.104.092.044.012-.017-.01-.115-.097-.044-.012m1.603.038.01-.018c-.069-.09-.071-.136-.077-.146-.022-.033-.053-.061-.074-.092-.035-.052-.047-.085-.092-.15-.031-.045-.015.009-.045-.035-.01-.016-.103-.214-.147-.204.008.011.205.309.425.645m-2.038-.58c.04.034.505.625.42.489-.011-.024-.423-.538-.42-.49m7.692.28c.01.025-.071.14-.106.187-.014-.013.079-.136.106-.186m-6.037-.235c.011.019.157.224.168.221-.039-.062-.234-.331-.168-.22m-1.544.121c.025.043.114.124.078.06-.04-.05-.084-.07-.078-.06m-.266-.477c-.012-.017-.21-.212-.144-.118.046.064.07.061.082.075.016.016.289.36.062.043m4.084-.216a3 3 0 0 1-.174.287c.056-.1.116-.2.174-.287m4.218.013-.06.106c-.074.076.094-.221.06-.106m-8.793-.167c-.022-.007.124.138.152.148a1 1 0 0 0-.152-.148m4.63-.057c-.007.01-.108.168-.084.151.034-.024.119-.194.085-.15M1.488 6.56c-.013.008.066.215.066.186-.001-.01-.056-.193-.066-.186m10.292-.02c.012-.013.088-.028-.027.111-.02.026.036-.088-.086.093.088-.137.047-.124.113-.204m-5.305-.13c.035.036.359.346.257.224-.016-.022-.368-.352-.257-.225m4.474-.5c.037-.027-.146.226-.152.235-.06.073.093-.171.152-.236m5.347 0c.017.004-.056.179-.064.19-.041.053.017-.135.064-.19m-8.552-.223c.017-.001.145.15.194.202-.016 0-.143-.153-.194-.202m-6.586-.146c.002-.14.089.543.024.229a3 3 0 0 1-.024-.229m4.333.108c-.028-.052.12.046.208.125.02.018.083.099-.01.036.021-.024-.11-.137-.198-.16m10.944-.17a7 7 0 0 1-.088.286c-.009-.068.068-.202.088-.286m.198.036c-.04.016-.066.163-.107.245.049-.026.078-.166.107-.245m-4.187.196c.095-.157.147-.154.138-.142-.109.159-.056.05-.058.048-.01.01-.088.128-.08.094m4.13-.191c-.003.003-.066.18-.052.19.032-.08.095-.226.052-.19m.138-.08c-.03.014-.079.173-.102.242.042-.018.07-.168.102-.242m-11.297.084a1 1 0 0 1 .209.134c-.021-.002-.16-.102-.209-.134m-4.31-.376c.016-.083.008.042.012.19.002.13.017.286.023.305-.027.038-.052-.435-.035-.495m1.601.208c.01.027.051.236.048.27a1.6 1.6 0 0 1-.048-.27m2.45.051c-.327-.168-.205-.213.194.072l-.045-.014c.462.326.03.021-.091-.044-.045-.026-.016.009-.057-.014m11.238-.052c-.005.026-.048.124-.063.17-.015-.067.079-.26.063-.17m.04.122-.001.002v-.005zM2.679 5.174c.009.01.017.158.01.18-.012-.045-.01-.129-.01-.18m14.051-.056c-.034.037-.067.252-.047.22.008-.013.068-.241.047-.22m-3.987.121c.02-.015-.024.048-.052.077-.048.052-.01-.026.052-.077m-7.995-.076c.02.007.148.087.198.112-.078-.021-.323-.16-.198-.112m7.049-.216a3 3 0 0 0-.206.25c.029-.035.318-.368.206-.25m.088.035c-.046.054-.177.197-.176.212.043-.055.175-.196.176-.212m-.004-.17c-.003.003.052-.037-.042.067-.008.009-.037.014-.148.154a.4.4 0 0 0-.046.077c.136-.128.478-.578.236-.298m-7.466.207c.095.038-.019.022-.065-.006-.018-.01.04-.004.065.006m8.783-.13c.095-.076-.206.22-.117.115.005-.006.112-.112.117-.115m-9.282-.026c-.302-.128.294.035.47.11-.177-.039-.393-.107-.105.013-.432-.13-.248-.092-.263-.102-.02-.008-.09-.015-.102-.02m2.846-.16c.064.03.207.162.299.245-.052-.026-.217-.178-.3-.245m-2.562.17c.041.008.127.054.093.052-.045-.003-.102-.053-.093-.052m9.522-.433-.011.007c-.033.033-.431.368-.452.39-.126.093.404-.377.43-.382l.019-.01a.5.5 0 0 1 .142-.101c-.033.022-.116.088-.128.096m-10.135.33c-.1-.036.318-.01.405.036-.014.005-.392-.04-.405-.036m3.1.007c.02-.009-.25-.21-.156-.115.024.023.15.118.156.115m6.675-.16a.7.7 0 0 1-.15.153c.144-.14 0-.023.15-.154m-.506-.684c-.042.017-.67.614-.74.712.077-.088.703-.674.739-.694.007-.008.006-.021.001-.018m4.164.427c-.013-.024-.042.071-.018.088.016.008.027-.073.018-.088m-4.39-.046c-.063.04-.098.123-.012.042.026-.024.02-.046.013-.042m-.067-.244c-.051.062-.216.21-.304.302-.022-.002.236-.24.304-.302m6.378-.472c-.08-.273-.506-1.22.01-.26h-.002c.095.26.009.11.014.122.129.532.117.373.147.455.039.165-.024.167.015.416-.067-.432-.023-.03-.049-.023-.085.072.003-.601-.14-.857-.012-.032.042.23.005.147m.198.327c.03-.077.07.336.058.37 0 .023-.087-.272-.058-.37m-13.104.22c.012.006.155.106.16.11.112.098-.304-.19-.16-.11m8.248-.109a3 3 0 0 1-.236.175c-.151.088.22-.173.236-.175m-1.018-.201c-.06.04-.228.169-.25.2.059-.052.23-.175.25-.2m.67-.567q-.208.115-.404.246c.147-.055-.126.109-.23.151l-.094.097c-.085.01-.066.08-.2.141-.119.158.418-.324.522-.328-.645.438.452-.252-.037-.002.392-.224.122-.087.175-.132.058-.048.286-.167.268-.173m-8.765.425c-.013-.034.274.127.37.18.012.032-.265-.137-.37-.18m8.653-.438c-.1.08-.197.12-.339.213-.037.025-.023.025-.027.028-.065.044-.022.003-.062.03-.035.015-.529.407-.466.342.034-.06.76-.557.894-.613m-8.85.472c.067.042.18.06.12.02-.064-.032-.126-.025-.12-.02m9.785-.02c-.009-.017.3-.13.378-.153-.08.036-.263.103-.378.152m2.606-.281c.042.056.083.12.112.182.076-.002-.01-.062-.03-.091s-.015-.068-.082-.091m-12.771.031c.022-.005.234.074.305.102-.052-.005-.2-.067-.305-.102m-.102.092c-.162-.072-.163-.029-.04.007.042.012.045-.004.04-.007m9.476-.24a3 3 0 0 0-.282.177c.037-.024.456-.261.282-.176m-10.698.044c-.128 0-.31.012-.346.027a4 4 0 0 1 .346-.016c.048 0 .078-.003.068-.011zm15.238-.337c-.108-.18.185.207.22.342-.01-.003-.203-.332-.22-.342m-15.24.203c.583.004.802.09.779.086-.027.005-.299-.06-.78-.068q-.158-.001-.333.013c-.004-.015-.008-.011.095-.02a3 3 0 0 1 .239-.011m12.917.066c.035.007-.117.017-.171.017-.123-.003.158-.022.17-.017m-1.91-.188c-.03.009-.282.132-.297.154.121-.052.362-.18.296-.154m1-.264a5 5 0 0 0-.75.203c-.056.021-.108.05-.156.07-.075.032-.013-.007-.018-.005l-.075.034c-.065.034-.09.062.068-.008a5 5 0 0 0-.214.113c.275-.119.244-.135.324-.169.113-.044.115-.014.096.003.084-.055.484-.193.724-.241m1.618.223c.12.005.32.093.423.136.01.005-.006-.103.102.022.07.068-.429-.12-.525-.158m-2.05-.054c-.36.133-.231.068-.299.084-.141.04-.073.072-.055.067.072-.022.304-.131.354-.151m4.177-.172c.012.012.142.25.142.259.091.224-.306-.487-.142-.259m-3.529-.103c-.23.02-.481.116-.51.125-.036.008.015-.02.007-.019-.02 0-.39.122-.407.134-.012.005.061.001-.01.036.136-.082.83-.25.868-.246.029-.006-.19.004.149-.034zm-.62.095c-.175.043-.534.205-.393.121.07-.042.127-.045.137-.048.096-.034.297-.098.256-.073m.02.051c.095-.02-.164.06-.227.082-.14.041.208-.08.227-.082m.23-.151c.165-.033-.563.168-.602.196.042-.033.577-.201.602-.196m-.502.128c.028-.006-.017.022-.095.052-.031.005.03-.04.095-.052m.76-.058c-.123.021-.31.061-.371.092.118-.034.306-.069.37-.092m-.251-.085c-.025-.001-.558.17-.461.124.064-.043.599-.17.461-.124m2.018.036c-.103-.048.137.012.204.054-.006.013-.186-.048-.204-.054m-.488-.128c.131.041-.207.027-.248-.009a1.2 1.2 0 0 1 .248.01m-.015-.078c.104.029-.132.013-.206.001-.004-.017.19-.006.206 0m-.309-.285c.354.068.05.042.818.126-.332-.027-.026.03-.092.035-.053.003-.242-.045-.137.008-.134-.074-.69-.1-.728-.099h.001c-.016-.004.026-.085.138-.07m.277.006c.008-.012.131-.003.262.021.155.027.31.074.357.088-.03.003-.194-.034-.357-.058-.138-.022-.268-.037-.262-.051" fill="currentcolor"/></svg>